<mxfile host="app.diagrams.net" modified="2024-07-05T14:11:41.632Z" agent="Mozilla/5.0 (Windows NT 10.0; Win64; x64) AppleWebKit/537.36 (KHTML, like Gecko) Chrome/105.0.0.0 Safari/537.36 Edg/105.0.1343.42" etag="nsxKmHGpMhp7aZVcyvVr" version="24.6.4" type="device">
  <diagram id="R2lEEEUBdFMjLlhIrx00" name="Page-1">
    <mxGraphModel dx="2283" dy="788" grid="1" gridSize="10" guides="1" tooltips="1" connect="1" arrows="1" fold="1" page="1" pageScale="1" pageWidth="850" pageHeight="1100" math="0" shadow="0" extFonts="Permanent Marker^https://fonts.googleapis.com/css?family=Permanent+Marker">
      <root>
        <mxCell id="0" />
        <mxCell id="1" parent="0" />
        <mxCell id="Sk57CoDipUcGn4FF0Fak-1" value="calçados" style="rounded=1;whiteSpace=wrap;html=1;" parent="1" vertex="1">
          <mxGeometry x="120" y="170" width="120" height="60" as="geometry" />
        </mxCell>
        <mxCell id="Sk57CoDipUcGn4FF0Fak-104" style="edgeStyle=orthogonalEdgeStyle;rounded=0;orthogonalLoop=1;jettySize=auto;html=1;entryX=0;entryY=0.5;entryDx=0;entryDy=0;exitX=1;exitY=0.5;exitDx=0;exitDy=0;" parent="1" target="Sk57CoDipUcGn4FF0Fak-1" edge="1">
          <mxGeometry relative="1" as="geometry">
            <mxPoint x="-40" y="200" as="sourcePoint" />
          </mxGeometry>
        </mxCell>
        <mxCell id="Sk57CoDipUcGn4FF0Fak-109" style="edgeStyle=orthogonalEdgeStyle;rounded=0;orthogonalLoop=1;jettySize=auto;html=1;exitX=1;exitY=0.5;exitDx=0;exitDy=0;entryX=0;entryY=0.5;entryDx=0;entryDy=0;" parent="1" source="Sk57CoDipUcGn4FF0Fak-114" target="Sk57CoDipUcGn4FF0Fak-13" edge="1">
          <mxGeometry relative="1" as="geometry">
            <mxPoint x="480" y="200" as="sourcePoint" />
          </mxGeometry>
        </mxCell>
        <mxCell id="Sk57CoDipUcGn4FF0Fak-113" style="edgeStyle=orthogonalEdgeStyle;rounded=0;orthogonalLoop=1;jettySize=auto;html=1;exitX=0;exitY=0.5;exitDx=0;exitDy=0;" parent="1" source="Sk57CoDipUcGn4FF0Fak-114" target="Sk57CoDipUcGn4FF0Fak-1" edge="1">
          <mxGeometry relative="1" as="geometry">
            <mxPoint x="360" y="200" as="sourcePoint" />
          </mxGeometry>
        </mxCell>
        <mxCell id="Sk57CoDipUcGn4FF0Fak-8" value="" style="ellipse;whiteSpace=wrap;html=1;" parent="1" vertex="1">
          <mxGeometry x="120" y="120" width="20" height="20" as="geometry" />
        </mxCell>
        <mxCell id="Sk57CoDipUcGn4FF0Fak-9" style="edgeStyle=orthogonalEdgeStyle;rounded=0;orthogonalLoop=1;jettySize=auto;html=1;entryX=0.1;entryY=0.05;entryDx=0;entryDy=0;entryPerimeter=0;" parent="1" source="Sk57CoDipUcGn4FF0Fak-8" target="Sk57CoDipUcGn4FF0Fak-1" edge="1">
          <mxGeometry relative="1" as="geometry">
            <Array as="points">
              <mxPoint x="130" y="173" />
            </Array>
          </mxGeometry>
        </mxCell>
        <mxCell id="Sk57CoDipUcGn4FF0Fak-10" value="" style="ellipse;whiteSpace=wrap;html=1;" parent="1" vertex="1">
          <mxGeometry x="180" y="120" width="20" height="20" as="geometry" />
        </mxCell>
        <mxCell id="Sk57CoDipUcGn4FF0Fak-13" value="cliente" style="rounded=1;whiteSpace=wrap;html=1;" parent="1" vertex="1">
          <mxGeometry x="590" y="170" width="120" height="60" as="geometry" />
        </mxCell>
        <mxCell id="Sk57CoDipUcGn4FF0Fak-14" value="marca&amp;nbsp;" style="text;html=1;align=center;verticalAlign=middle;whiteSpace=wrap;rounded=0;" parent="1" vertex="1">
          <mxGeometry x="100" y="90" width="60" height="30" as="geometry" />
        </mxCell>
        <mxCell id="Sk57CoDipUcGn4FF0Fak-16" value="numeraçao" style="text;html=1;align=center;verticalAlign=middle;whiteSpace=wrap;rounded=0;" parent="1" vertex="1">
          <mxGeometry x="160" y="90" width="60" height="30" as="geometry" />
        </mxCell>
        <mxCell id="Sk57CoDipUcGn4FF0Fak-25" style="edgeStyle=orthogonalEdgeStyle;rounded=0;orthogonalLoop=1;jettySize=auto;html=1;entryX=0;entryY=0;entryDx=0;entryDy=0;" parent="1" source="Sk57CoDipUcGn4FF0Fak-17" target="Sk57CoDipUcGn4FF0Fak-13" edge="1">
          <mxGeometry relative="1" as="geometry" />
        </mxCell>
        <mxCell id="Sk57CoDipUcGn4FF0Fak-17" value="" style="ellipse;whiteSpace=wrap;html=1;" parent="1" vertex="1">
          <mxGeometry x="580" y="110" width="20" height="20" as="geometry" />
        </mxCell>
        <mxCell id="Sk57CoDipUcGn4FF0Fak-21" style="edgeStyle=orthogonalEdgeStyle;rounded=0;orthogonalLoop=1;jettySize=auto;html=1;entryX=0.583;entryY=-0.033;entryDx=0;entryDy=0;entryPerimeter=0;" parent="1" source="Sk57CoDipUcGn4FF0Fak-10" target="Sk57CoDipUcGn4FF0Fak-1" edge="1">
          <mxGeometry relative="1" as="geometry" />
        </mxCell>
        <mxCell id="Sk57CoDipUcGn4FF0Fak-22" value="" style="ellipse;whiteSpace=wrap;html=1;" parent="1" vertex="1">
          <mxGeometry x="220" y="120" width="20" height="20" as="geometry" />
        </mxCell>
        <mxCell id="Sk57CoDipUcGn4FF0Fak-23" style="edgeStyle=orthogonalEdgeStyle;rounded=0;orthogonalLoop=1;jettySize=auto;html=1;entryX=0.925;entryY=0.017;entryDx=0;entryDy=0;entryPerimeter=0;" parent="1" source="Sk57CoDipUcGn4FF0Fak-22" target="Sk57CoDipUcGn4FF0Fak-1" edge="1">
          <mxGeometry relative="1" as="geometry" />
        </mxCell>
        <mxCell id="Sk57CoDipUcGn4FF0Fak-24" value="modelo" style="text;html=1;align=center;verticalAlign=middle;whiteSpace=wrap;rounded=0;" parent="1" vertex="1">
          <mxGeometry x="220" y="90" width="60" height="30" as="geometry" />
        </mxCell>
        <mxCell id="Sk57CoDipUcGn4FF0Fak-30" style="edgeStyle=orthogonalEdgeStyle;rounded=0;orthogonalLoop=1;jettySize=auto;html=1;entryX=0.25;entryY=0;entryDx=0;entryDy=0;" parent="1" source="Sk57CoDipUcGn4FF0Fak-26" target="Sk57CoDipUcGn4FF0Fak-13" edge="1">
          <mxGeometry relative="1" as="geometry" />
        </mxCell>
        <mxCell id="Sk57CoDipUcGn4FF0Fak-26" value="" style="ellipse;whiteSpace=wrap;html=1;" parent="1" vertex="1">
          <mxGeometry x="610" y="110" width="20" height="20" as="geometry" />
        </mxCell>
        <mxCell id="Sk57CoDipUcGn4FF0Fak-27" value="nome" style="text;html=1;align=center;verticalAlign=middle;whiteSpace=wrap;rounded=0;" parent="1" vertex="1">
          <mxGeometry x="550" y="80" width="60" height="30" as="geometry" />
        </mxCell>
        <mxCell id="Sk57CoDipUcGn4FF0Fak-32" value="cpf&amp;nbsp;" style="text;html=1;align=center;verticalAlign=middle;whiteSpace=wrap;rounded=0;" parent="1" vertex="1">
          <mxGeometry x="590" y="80" width="60" height="30" as="geometry" />
        </mxCell>
        <mxCell id="Sk57CoDipUcGn4FF0Fak-34" style="edgeStyle=orthogonalEdgeStyle;rounded=0;orthogonalLoop=1;jettySize=auto;html=1;entryX=0.5;entryY=0;entryDx=0;entryDy=0;" parent="1" source="Sk57CoDipUcGn4FF0Fak-33" target="Sk57CoDipUcGn4FF0Fak-13" edge="1">
          <mxGeometry relative="1" as="geometry" />
        </mxCell>
        <mxCell id="Sk57CoDipUcGn4FF0Fak-33" value="" style="ellipse;whiteSpace=wrap;html=1;" parent="1" vertex="1">
          <mxGeometry x="640" y="110" width="20" height="20" as="geometry" />
        </mxCell>
        <mxCell id="Sk57CoDipUcGn4FF0Fak-35" value="contato" style="text;html=1;align=center;verticalAlign=middle;whiteSpace=wrap;rounded=0;" parent="1" vertex="1">
          <mxGeometry x="620" y="80" width="60" height="30" as="geometry" />
        </mxCell>
        <mxCell id="Sk57CoDipUcGn4FF0Fak-36" value="" style="ellipse;whiteSpace=wrap;html=1;" parent="1" vertex="1">
          <mxGeometry x="680" y="110" width="20" height="20" as="geometry" />
        </mxCell>
        <mxCell id="Sk57CoDipUcGn4FF0Fak-37" style="edgeStyle=orthogonalEdgeStyle;rounded=0;orthogonalLoop=1;jettySize=auto;html=1;entryX=0.833;entryY=0.017;entryDx=0;entryDy=0;entryPerimeter=0;" parent="1" source="Sk57CoDipUcGn4FF0Fak-36" target="Sk57CoDipUcGn4FF0Fak-13" edge="1">
          <mxGeometry relative="1" as="geometry" />
        </mxCell>
        <mxCell id="Sk57CoDipUcGn4FF0Fak-38" value="endereço" style="text;html=1;align=center;verticalAlign=middle;whiteSpace=wrap;rounded=0;" parent="1" vertex="1">
          <mxGeometry x="670" y="80" width="60" height="30" as="geometry" />
        </mxCell>
        <mxCell id="Sk57CoDipUcGn4FF0Fak-40" style="edgeStyle=orthogonalEdgeStyle;rounded=0;orthogonalLoop=1;jettySize=auto;html=1;" parent="1" source="Sk57CoDipUcGn4FF0Fak-39" edge="1">
          <mxGeometry relative="1" as="geometry">
            <mxPoint x="720" y="170" as="targetPoint" />
          </mxGeometry>
        </mxCell>
        <mxCell id="Sk57CoDipUcGn4FF0Fak-39" value="" style="ellipse;whiteSpace=wrap;html=1;" parent="1" vertex="1">
          <mxGeometry x="750" y="160" width="20" height="20" as="geometry" />
        </mxCell>
        <mxCell id="Sk57CoDipUcGn4FF0Fak-41" value="e-mail" style="text;html=1;align=center;verticalAlign=middle;whiteSpace=wrap;rounded=0;" parent="1" vertex="1">
          <mxGeometry x="730" y="120" width="60" height="30" as="geometry" />
        </mxCell>
        <mxCell id="ivRZ29PfZ7hRcd5_CLwD-6" style="edgeStyle=orthogonalEdgeStyle;rounded=0;orthogonalLoop=1;jettySize=auto;html=1;entryX=0;entryY=0.5;entryDx=0;entryDy=0;" edge="1" parent="1" source="Sk57CoDipUcGn4FF0Fak-42" target="ivRZ29PfZ7hRcd5_CLwD-3">
          <mxGeometry relative="1" as="geometry" />
        </mxCell>
        <mxCell id="Sk57CoDipUcGn4FF0Fak-42" value="funcionario" style="rounded=1;whiteSpace=wrap;html=1;" parent="1" vertex="1">
          <mxGeometry x="120" y="330" width="120" height="60" as="geometry" />
        </mxCell>
        <mxCell id="Sk57CoDipUcGn4FF0Fak-44" style="edgeStyle=orthogonalEdgeStyle;rounded=0;orthogonalLoop=1;jettySize=auto;html=1;" parent="1" source="Sk57CoDipUcGn4FF0Fak-43" edge="1">
          <mxGeometry relative="1" as="geometry">
            <mxPoint x="110" y="180" as="targetPoint" />
          </mxGeometry>
        </mxCell>
        <mxCell id="Sk57CoDipUcGn4FF0Fak-43" value="" style="ellipse;whiteSpace=wrap;html=1;" parent="1" vertex="1">
          <mxGeometry x="40" y="170" width="20" height="20" as="geometry" />
        </mxCell>
        <mxCell id="Sk57CoDipUcGn4FF0Fak-45" value="preço" style="text;html=1;align=center;verticalAlign=middle;whiteSpace=wrap;rounded=0;" parent="1" vertex="1">
          <mxGeometry x="10" y="140" width="60" height="30" as="geometry" />
        </mxCell>
        <mxCell id="Sk57CoDipUcGn4FF0Fak-46" value="" style="ellipse;whiteSpace=wrap;html=1;" parent="1" vertex="1">
          <mxGeometry x="-100" y="260" width="20" height="20" as="geometry" />
        </mxCell>
        <mxCell id="Sk57CoDipUcGn4FF0Fak-48" style="edgeStyle=orthogonalEdgeStyle;rounded=0;orthogonalLoop=1;jettySize=auto;html=1;exitX=0.5;exitY=0;exitDx=0;exitDy=0;entryX=0.333;entryY=0.983;entryDx=0;entryDy=0;entryPerimeter=0;" parent="1" source="Sk57CoDipUcGn4FF0Fak-46" edge="1">
          <mxGeometry relative="1" as="geometry">
            <mxPoint x="-90.03999999999996" y="228.98000000000002" as="targetPoint" />
          </mxGeometry>
        </mxCell>
        <mxCell id="Sk57CoDipUcGn4FF0Fak-49" value="quantidades&amp;nbsp;" style="text;html=1;align=center;verticalAlign=middle;whiteSpace=wrap;rounded=0;" parent="1" vertex="1">
          <mxGeometry x="-140" y="280" width="60" height="30" as="geometry" />
        </mxCell>
        <mxCell id="Sk57CoDipUcGn4FF0Fak-50" value="" style="ellipse;whiteSpace=wrap;html=1;aspect=fixed;" parent="1" vertex="1">
          <mxGeometry x="-70" y="260" width="20" height="20" as="geometry" />
        </mxCell>
        <mxCell id="Sk57CoDipUcGn4FF0Fak-51" style="edgeStyle=orthogonalEdgeStyle;rounded=0;orthogonalLoop=1;jettySize=auto;html=1;entryX=0.592;entryY=0.983;entryDx=0;entryDy=0;entryPerimeter=0;" parent="1" source="Sk57CoDipUcGn4FF0Fak-50" edge="1">
          <mxGeometry relative="1" as="geometry">
            <mxPoint x="-58.960000000000036" y="228.98000000000002" as="targetPoint" />
          </mxGeometry>
        </mxCell>
        <mxCell id="Sk57CoDipUcGn4FF0Fak-52" value="codigo" style="text;html=1;align=center;verticalAlign=middle;whiteSpace=wrap;rounded=0;" parent="1" vertex="1">
          <mxGeometry x="-70" y="280" width="50" height="30" as="geometry" />
        </mxCell>
        <mxCell id="Sk57CoDipUcGn4FF0Fak-54" value="" style="ellipse;whiteSpace=wrap;html=1;aspect=fixed;" parent="1" vertex="1">
          <mxGeometry x="460" y="270" width="20" height="20" as="geometry" />
        </mxCell>
        <mxCell id="Sk57CoDipUcGn4FF0Fak-55" style="edgeStyle=orthogonalEdgeStyle;rounded=0;orthogonalLoop=1;jettySize=auto;html=1;entryX=0.917;entryY=1.067;entryDx=0;entryDy=0;entryPerimeter=0;" parent="1" source="Sk57CoDipUcGn4FF0Fak-54" edge="1">
          <mxGeometry relative="1" as="geometry">
            <mxPoint x="470.03999999999996" y="234.01999999999998" as="targetPoint" />
          </mxGeometry>
        </mxCell>
        <mxCell id="Sk57CoDipUcGn4FF0Fak-56" value="valor total" style="text;html=1;align=center;verticalAlign=middle;whiteSpace=wrap;rounded=0;" parent="1" vertex="1">
          <mxGeometry x="440" y="290" width="60" height="30" as="geometry" />
        </mxCell>
        <mxCell id="Sk57CoDipUcGn4FF0Fak-57" value="quantidade" style="text;html=1;align=center;verticalAlign=middle;whiteSpace=wrap;rounded=0;" parent="1" vertex="1">
          <mxGeometry x="390" y="60" width="60" height="30" as="geometry" />
        </mxCell>
        <mxCell id="Sk57CoDipUcGn4FF0Fak-59" style="edgeStyle=orthogonalEdgeStyle;rounded=0;orthogonalLoop=1;jettySize=auto;html=1;entryX=0.5;entryY=1;entryDx=0;entryDy=0;" parent="1" source="Sk57CoDipUcGn4FF0Fak-58" edge="1">
          <mxGeometry relative="1" as="geometry">
            <mxPoint x="420" y="230" as="targetPoint" />
          </mxGeometry>
        </mxCell>
        <mxCell id="Sk57CoDipUcGn4FF0Fak-58" value="" style="ellipse;whiteSpace=wrap;html=1;aspect=fixed;" parent="1" vertex="1">
          <mxGeometry x="410" y="95" width="20" height="20" as="geometry" />
        </mxCell>
        <mxCell id="ivRZ29PfZ7hRcd5_CLwD-8" style="edgeStyle=orthogonalEdgeStyle;rounded=0;orthogonalLoop=1;jettySize=auto;html=1;exitX=0.5;exitY=0;exitDx=0;exitDy=0;" edge="1" parent="1" source="Sk57CoDipUcGn4FF0Fak-61">
          <mxGeometry relative="1" as="geometry">
            <mxPoint x="400" y="250" as="targetPoint" />
          </mxGeometry>
        </mxCell>
        <mxCell id="Sk57CoDipUcGn4FF0Fak-61" value="" style="ellipse;whiteSpace=wrap;html=1;aspect=fixed;" parent="1" vertex="1">
          <mxGeometry x="390" y="270" width="20" height="20" as="geometry" />
        </mxCell>
        <mxCell id="Sk57CoDipUcGn4FF0Fak-64" value="data" style="text;html=1;align=center;verticalAlign=middle;whiteSpace=wrap;rounded=0;" parent="1" vertex="1">
          <mxGeometry x="365" y="290" width="60" height="30" as="geometry" />
        </mxCell>
        <mxCell id="Sk57CoDipUcGn4FF0Fak-66" style="edgeStyle=orthogonalEdgeStyle;rounded=0;orthogonalLoop=1;jettySize=auto;html=1;" parent="1" source="Sk57CoDipUcGn4FF0Fak-65" edge="1">
          <mxGeometry relative="1" as="geometry">
            <mxPoint x="350" y="220" as="targetPoint" />
          </mxGeometry>
        </mxCell>
        <mxCell id="Sk57CoDipUcGn4FF0Fak-65" value="" style="ellipse;whiteSpace=wrap;html=1;aspect=fixed;" parent="1" vertex="1">
          <mxGeometry x="280" y="210" width="20" height="20" as="geometry" />
        </mxCell>
        <mxCell id="Sk57CoDipUcGn4FF0Fak-67" value="hora" style="text;html=1;align=center;verticalAlign=middle;whiteSpace=wrap;rounded=0;" parent="1" vertex="1">
          <mxGeometry x="230" y="205" width="60" height="30" as="geometry" />
        </mxCell>
        <mxCell id="Sk57CoDipUcGn4FF0Fak-72" style="edgeStyle=orthogonalEdgeStyle;rounded=0;orthogonalLoop=1;jettySize=auto;html=1;" parent="1" source="Sk57CoDipUcGn4FF0Fak-71" edge="1">
          <mxGeometry relative="1" as="geometry">
            <mxPoint x="110" y="320" as="targetPoint" />
          </mxGeometry>
        </mxCell>
        <mxCell id="Sk57CoDipUcGn4FF0Fak-71" value="" style="ellipse;whiteSpace=wrap;html=1;aspect=fixed;" parent="1" vertex="1">
          <mxGeometry x="50" y="310" width="20" height="20" as="geometry" />
        </mxCell>
        <mxCell id="Sk57CoDipUcGn4FF0Fak-74" value="nome" style="text;html=1;align=center;verticalAlign=middle;whiteSpace=wrap;rounded=0;" parent="1" vertex="1">
          <mxGeometry y="305" width="60" height="30" as="geometry" />
        </mxCell>
        <mxCell id="Sk57CoDipUcGn4FF0Fak-76" style="edgeStyle=orthogonalEdgeStyle;rounded=0;orthogonalLoop=1;jettySize=auto;html=1;" parent="1" source="Sk57CoDipUcGn4FF0Fak-75" edge="1">
          <mxGeometry relative="1" as="geometry">
            <mxPoint x="110" y="347.5" as="targetPoint" />
          </mxGeometry>
        </mxCell>
        <mxCell id="Sk57CoDipUcGn4FF0Fak-75" value="" style="ellipse;whiteSpace=wrap;html=1;aspect=fixed;" parent="1" vertex="1">
          <mxGeometry x="47.5" y="335" width="25" height="25" as="geometry" />
        </mxCell>
        <mxCell id="Sk57CoDipUcGn4FF0Fak-77" value="cpf" style="text;html=1;align=center;verticalAlign=middle;whiteSpace=wrap;rounded=0;" parent="1" vertex="1">
          <mxGeometry x="-10" y="330" width="60" height="30" as="geometry" />
        </mxCell>
        <mxCell id="Sk57CoDipUcGn4FF0Fak-79" value="" style="ellipse;whiteSpace=wrap;html=1;aspect=fixed;" parent="1" vertex="1">
          <mxGeometry x="52.5" y="362.5" width="17.5" height="17.5" as="geometry" />
        </mxCell>
        <mxCell id="Sk57CoDipUcGn4FF0Fak-80" style="edgeStyle=orthogonalEdgeStyle;rounded=0;orthogonalLoop=1;jettySize=auto;html=1;entryX=-0.008;entryY=0.867;entryDx=0;entryDy=0;entryPerimeter=0;" parent="1" source="Sk57CoDipUcGn4FF0Fak-79" target="Sk57CoDipUcGn4FF0Fak-42" edge="1">
          <mxGeometry relative="1" as="geometry" />
        </mxCell>
        <mxCell id="Sk57CoDipUcGn4FF0Fak-81" value="contato" style="text;html=1;align=center;verticalAlign=middle;whiteSpace=wrap;rounded=0;" parent="1" vertex="1">
          <mxGeometry y="356" width="60" height="30" as="geometry" />
        </mxCell>
        <mxCell id="Sk57CoDipUcGn4FF0Fak-82" value="" style="ellipse;whiteSpace=wrap;html=1;aspect=fixed;" parent="1" vertex="1">
          <mxGeometry x="90" y="270" width="20" height="20" as="geometry" />
        </mxCell>
        <mxCell id="Sk57CoDipUcGn4FF0Fak-83" value="" style="endArrow=none;html=1;rounded=0;entryX=0.5;entryY=1;entryDx=0;entryDy=0;exitX=0.058;exitY=0;exitDx=0;exitDy=0;exitPerimeter=0;" parent="1" source="Sk57CoDipUcGn4FF0Fak-42" target="Sk57CoDipUcGn4FF0Fak-82" edge="1">
          <mxGeometry width="50" height="50" relative="1" as="geometry">
            <mxPoint x="100" y="320" as="sourcePoint" />
            <mxPoint x="150" y="270" as="targetPoint" />
          </mxGeometry>
        </mxCell>
        <mxCell id="Sk57CoDipUcGn4FF0Fak-84" value="endereço" style="text;html=1;align=center;verticalAlign=middle;whiteSpace=wrap;rounded=0;" parent="1" vertex="1">
          <mxGeometry x="40" y="240" width="60" height="30" as="geometry" />
        </mxCell>
        <mxCell id="Sk57CoDipUcGn4FF0Fak-86" style="edgeStyle=orthogonalEdgeStyle;rounded=0;orthogonalLoop=1;jettySize=auto;html=1;entryX=0;entryY=1;entryDx=0;entryDy=0;" parent="1" source="Sk57CoDipUcGn4FF0Fak-85" target="Sk57CoDipUcGn4FF0Fak-42" edge="1">
          <mxGeometry relative="1" as="geometry" />
        </mxCell>
        <mxCell id="Sk57CoDipUcGn4FF0Fak-85" value="" style="ellipse;whiteSpace=wrap;html=1;aspect=fixed;" parent="1" vertex="1">
          <mxGeometry x="110" y="420" width="20" height="20" as="geometry" />
        </mxCell>
        <mxCell id="Sk57CoDipUcGn4FF0Fak-87" value="tempo de experiencia&amp;nbsp;" style="text;html=1;align=center;verticalAlign=middle;whiteSpace=wrap;rounded=0;" parent="1" vertex="1">
          <mxGeometry x="80" y="440" width="60" height="30" as="geometry" />
        </mxCell>
        <mxCell id="Sk57CoDipUcGn4FF0Fak-89" style="edgeStyle=orthogonalEdgeStyle;rounded=0;orthogonalLoop=1;jettySize=auto;html=1;" parent="1" source="Sk57CoDipUcGn4FF0Fak-88" edge="1">
          <mxGeometry relative="1" as="geometry">
            <mxPoint x="350" y="180" as="targetPoint" />
          </mxGeometry>
        </mxCell>
        <mxCell id="Sk57CoDipUcGn4FF0Fak-88" value="" style="ellipse;whiteSpace=wrap;html=1;aspect=fixed;" parent="1" vertex="1">
          <mxGeometry x="280" y="170" width="20" height="20" as="geometry" />
        </mxCell>
        <mxCell id="Sk57CoDipUcGn4FF0Fak-90" value="avaliação" style="text;html=1;align=center;verticalAlign=middle;whiteSpace=wrap;rounded=0;" parent="1" vertex="1">
          <mxGeometry x="260" y="135" width="60" height="30" as="geometry" />
        </mxCell>
        <mxCell id="Sk57CoDipUcGn4FF0Fak-91" value="" style="ellipse;whiteSpace=wrap;html=1;aspect=fixed;" parent="1" vertex="1">
          <mxGeometry x="130" y="270" width="20" height="20" as="geometry" />
        </mxCell>
        <mxCell id="Sk57CoDipUcGn4FF0Fak-92" style="edgeStyle=orthogonalEdgeStyle;rounded=0;orthogonalLoop=1;jettySize=auto;html=1;entryX=0.158;entryY=-0.067;entryDx=0;entryDy=0;entryPerimeter=0;" parent="1" source="Sk57CoDipUcGn4FF0Fak-91" target="Sk57CoDipUcGn4FF0Fak-42" edge="1">
          <mxGeometry relative="1" as="geometry" />
        </mxCell>
        <mxCell id="Sk57CoDipUcGn4FF0Fak-93" value="comissão" style="text;html=1;align=center;verticalAlign=middle;whiteSpace=wrap;rounded=0;" parent="1" vertex="1">
          <mxGeometry x="110" y="240" width="60" height="30" as="geometry" />
        </mxCell>
        <mxCell id="Sk57CoDipUcGn4FF0Fak-94" value="n" style="text;html=1;align=center;verticalAlign=middle;whiteSpace=wrap;rounded=0;" parent="1" vertex="1">
          <mxGeometry x="220" y="165" width="60" height="30" as="geometry" />
        </mxCell>
        <mxCell id="Sk57CoDipUcGn4FF0Fak-97" value="1" style="text;html=1;align=center;verticalAlign=middle;whiteSpace=wrap;rounded=0;" parent="1" vertex="1">
          <mxGeometry x="-70" y="165" width="60" height="30" as="geometry" />
        </mxCell>
        <mxCell id="Sk57CoDipUcGn4FF0Fak-98" value="n" style="text;html=1;align=center;verticalAlign=middle;whiteSpace=wrap;rounded=0;" parent="1" vertex="1">
          <mxGeometry x="80" y="200" width="60" height="30" as="geometry" />
        </mxCell>
        <mxCell id="Sk57CoDipUcGn4FF0Fak-100" value="n" style="text;html=1;align=center;verticalAlign=middle;whiteSpace=wrap;rounded=0;" parent="1" vertex="1">
          <mxGeometry x="550" y="210" width="60" height="30" as="geometry" />
        </mxCell>
        <mxCell id="Sk57CoDipUcGn4FF0Fak-101" value="n" style="text;html=1;align=center;verticalAlign=middle;whiteSpace=wrap;rounded=0;" parent="1" vertex="1">
          <mxGeometry x="190" y="380" width="60" height="30" as="geometry" />
        </mxCell>
        <mxCell id="Sk57CoDipUcGn4FF0Fak-102" value="n" style="text;html=1;align=center;verticalAlign=middle;whiteSpace=wrap;rounded=0;" parent="1" vertex="1">
          <mxGeometry x="190" y="230" width="60" height="30" as="geometry" />
        </mxCell>
        <mxCell id="Sk57CoDipUcGn4FF0Fak-103" value="n" style="text;html=1;align=center;verticalAlign=middle;whiteSpace=wrap;rounded=0;" parent="1" vertex="1">
          <mxGeometry x="180" y="290" width="60" height="30" as="geometry" />
        </mxCell>
        <mxCell id="ivRZ29PfZ7hRcd5_CLwD-7" style="edgeStyle=orthogonalEdgeStyle;rounded=0;orthogonalLoop=1;jettySize=auto;html=1;exitX=0.5;exitY=1;exitDx=0;exitDy=0;" edge="1" parent="1" source="Sk57CoDipUcGn4FF0Fak-114" target="ivRZ29PfZ7hRcd5_CLwD-3">
          <mxGeometry relative="1" as="geometry" />
        </mxCell>
        <mxCell id="Sk57CoDipUcGn4FF0Fak-114" value="venda" style="rhombus;whiteSpace=wrap;html=1;" parent="1" vertex="1">
          <mxGeometry x="380" y="160" width="80" height="80" as="geometry" />
        </mxCell>
        <mxCell id="ivRZ29PfZ7hRcd5_CLwD-4" value="estoque" style="rounded=1;whiteSpace=wrap;html=1;" vertex="1" parent="1">
          <mxGeometry x="-140" y="165" width="120" height="60" as="geometry" />
        </mxCell>
        <mxCell id="ivRZ29PfZ7hRcd5_CLwD-3" value="vendafuncionario" style="rhombus;whiteSpace=wrap;html=1;" vertex="1" parent="1">
          <mxGeometry x="365" y="310" width="110" height="100" as="geometry" />
        </mxCell>
      </root>
    </mxGraphModel>
  </diagram>
</mxfile>
